<?xml version="1.0" encoding="utf-8"?>
<!-- Generator: Adobe Illustrator 16.0.1, SVG Export Plug-In . SVG Version: 6.00 Build 0)  -->
<!DOCTYPE svg PUBLIC "-//W3C//DTD SVG 1.1//EN" "http://www.w3.org/Graphics/SVG/1.1/DTD/svg11.dtd">
<svg version="1.1" id="Layer_1" xmlns="http://www.w3.org/2000/svg" xmlns:xlink="http://www.w3.org/1999/xlink" x="0px" y="0px"
	 width="150px" height="150px" viewBox="0 0 150 150" enable-background="new 0 0 150 150" xml:space="preserve">
<g>
	<path fill="#58595B" d="M9.501,133.416v-4.909H4.395v4.909H3.247V122.66h1.148v4.819h5.106v-4.819h1.148v10.756H9.501z"/>
	<path fill="#58595B" d="M21.543,133.416l-0.861-2.432h-4.698l-0.861,2.432h-1.224l3.958-10.756h0.967l3.943,10.756H21.543z
		 M18.356,124.307l-2.024,5.681h4.019L18.356,124.307z"/>
	<path fill="#58595B" d="M34.083,133.416v-8.173l-2.946,6.481h-0.982l-2.991-6.481v8.173h-1.148V122.66h1.148l3.504,7.629
		l3.414-7.629h1.148v10.756H34.083z"/>
	<path fill="#58595B" d="M39.857,133.416V122.66h1.148v10.756H39.857z"/>
	<path fill="#58595B" d="M48.394,133.507c-1.616,0-2.674-0.408-3.686-1.42l0.786-0.786c0.891,0.892,1.722,1.179,2.931,1.179
		c1.571,0,2.538-0.74,2.538-1.994c0-0.559-0.167-1.042-0.514-1.345c-0.348-0.302-0.62-0.393-1.405-0.514l-1.253-0.196
		c-0.846-0.136-1.511-0.407-1.979-0.815c-0.544-0.483-0.816-1.148-0.816-2.009c0-1.828,1.314-3.037,3.444-3.037
		c1.375,0,2.281,0.348,3.203,1.179l-0.74,0.74c-0.665-0.604-1.375-0.922-2.508-0.922c-1.435,0-2.266,0.801-2.266,1.994
		c0,0.529,0.151,0.952,0.483,1.239c0.332,0.287,0.891,0.498,1.45,0.589l1.178,0.182c1.012,0.15,1.51,0.362,1.963,0.755
		c0.589,0.499,0.907,1.238,0.907,2.13C52.11,132.344,50.629,133.507,48.394,133.507z"/>
	<path fill="#58595B" d="M62.279,133.416v-4.909h-5.106v4.909h-1.148V122.66h1.148v4.819h5.106v-4.819h1.148v10.756H62.279z"/>
	<path fill="#58595B" d="M76.919,133.416h-1.752l-1.979-6.525l-1.979,6.525h-1.752l-2.87-10.756h2.19l1.662,6.783l1.964-6.783h1.571
		l1.964,6.783l1.676-6.783h2.19L76.919,133.416z"/>
	<path fill="#58595B" d="M82.663,133.416V122.66h2.1v10.756H82.663z"/>
	<path fill="#58595B" d="M88.782,133.416V122.66h2.1v8.883h4.879v1.873H88.782z"/>
	<path fill="#58595B" d="M98.98,133.416V122.66h2.1v8.883h4.879v1.873H98.98z"/>
	<path fill="#58595B" d="M109.18,133.416V122.66h2.1v10.756H109.18z"/>
	<path fill="#58595B" d="M121.417,133.416l-0.635-1.903h-3.822l-0.649,1.903h-2.19l3.913-10.756h1.646l3.928,10.756H121.417z
		 M118.909,125.833l-1.359,3.912h2.674L118.909,125.833z"/>
	<path fill="#58595B" d="M134.094,133.416v-6.27l-2.055,4.079h-1.42l-2.069-4.079v6.27h-2.1V122.66h2.069l2.81,5.816l2.795-5.816
		h2.069v10.756H134.094z"/>
	<path fill="#58595B" d="M143.176,133.507c-1.632,0-2.87-0.348-3.928-1.42l1.359-1.359c0.68,0.68,1.602,0.906,2.599,0.906
		c1.238,0,1.903-0.469,1.903-1.33c0-0.377-0.105-0.694-0.333-0.906c-0.211-0.196-0.453-0.302-0.951-0.377l-1.299-0.182
		c-0.922-0.136-1.602-0.423-2.085-0.892c-0.514-0.514-0.771-1.208-0.771-2.114c0-1.919,1.42-3.264,3.746-3.264
		c1.48,0,2.554,0.363,3.475,1.254l-1.329,1.314c-0.68-0.649-1.496-0.74-2.206-0.74c-1.117,0-1.661,0.619-1.661,1.359
		c0,0.272,0.091,0.56,0.317,0.771c0.211,0.196,0.559,0.363,0.997,0.423l1.269,0.182c0.981,0.136,1.602,0.408,2.055,0.831
		c0.574,0.544,0.831,1.329,0.831,2.281C147.164,132.328,145.427,133.507,143.176,133.507z"/>
</g>
<path fill="#58595B" d="M106.34,86.229c-1.702,0.637-7.561,0.644-6.378-5.98l7.049-37.301c-3.062,1.863-10.194,6.97-16.45,17.095
	l-4.798,25.589c-0.014,0.069-0.345,1.586-0.017,3.458c-1.415,0.98-3.399,2.284-4.534,2.707c-1.7,0.636-7.573,0.737-6.39-5.887
	l6.924-36.752c0.111-0.514,1.714-8.707-8.01-10.367c-3.069-0.524-6.599,0.669-9.472,2.594c-1.657,1.108-4.057,2.882-5.93,4.291
	l4.316-22.668c0.009-0.039,2.012-8.681-8.002-10.391c-3.072-0.524-6.599,0.671-9.474,2.594c-3.092,2.068-8.782,6.461-8.782,6.461
	l-0.902,4.221c0,0,4.687-2.78,6.59-3.489c1.701-0.635,7.561-0.682,6.382,5.933l-7.191,38.005
	c7.867-11.578,16.436-15.942,17.482-16.61c0.928-0.515,1.812-0.929,2.417-1.155c1.699-0.634,7.559-0.668,6.383,5.944l-5.561,29.504
	c-1.307,0.88-2.85,1.85-3.799,2.204c-1.7,0.637-7.568,0.71-6.384-5.913l4.82-25.597c-4.218,2.987-11.354,9.275-17.025,20.436
	l-1.981,10.47c0,0-2.034,8.676,8.003,10.392c3.07,0.521,6.599-0.67,9.472-2.594c1.657-1.108,4.059-2.885,5.933-4.293l-0.379,2.044
	c0,0-2.045,8.693,7.991,10.41c3.07,0.524,6.601-0.67,9.474-2.593c2.577-1.725,7.434-5.426,8.984-6.612
	c1.168,1.613,3.192,3.045,6.67,3.638c3.071,0.521,6.598-0.67,9.472-2.594c3.094-2.068,8.783-6.462,8.783-6.462l0.886-4.622
	C112.912,82.339,108.241,85.52,106.34,86.229z"/>
</svg>
