<?xml version="1.0" encoding="utf-8"?>
<!-- Generator: Adobe Illustrator 16.0.1, SVG Export Plug-In . SVG Version: 6.00 Build 0)  -->
<!DOCTYPE svg PUBLIC "-//W3C//DTD SVG 1.1//EN" "http://www.w3.org/Graphics/SVG/1.1/DTD/svg11.dtd">
<svg version="1.1" id="Layer_1" xmlns="http://www.w3.org/2000/svg" xmlns:xlink="http://www.w3.org/1999/xlink" x="0px" y="0px"
	 width="40px" height="40px" viewBox="0 0 40 40" enable-background="new 0 0 40 40" xml:space="preserve">
<path fill="#F1F1F2" d="M34.015,32.572c-0.736,0.274-3.273,0.277-2.761-2.591l3.053-16.149c-1.326,0.807-4.414,3.018-7.123,7.401
	l-2.077,11.08c-0.006,0.029-0.15,0.686-0.008,1.496c-0.613,0.426-1.471,0.989-1.963,1.173c-0.736,0.275-3.279,0.318-2.766-2.55
	l2.998-15.913c0.048-0.222,0.741-3.769-3.468-4.488c-1.33-0.228-2.858,0.29-4.102,1.122c-0.717,0.48-1.756,1.249-2.567,1.858
	l1.869-9.815c0.003-0.016,0.872-3.758-3.465-4.499c-1.329-0.227-2.857,0.291-4.101,1.124C6.193,2.718,3.73,4.62,3.73,4.62
	L3.339,6.447c0,0,2.029-1.204,2.853-1.511c0.736-0.275,3.274-0.295,2.764,2.569L5.843,23.961c3.406-5.013,7.116-6.902,7.568-7.192
	c0.403-0.223,0.785-0.402,1.046-0.5c0.736-0.275,3.272-0.291,2.763,2.574l-2.406,12.773c-0.566,0.383-1.234,0.802-1.645,0.956
	c-0.737,0.274-3.278,0.306-2.765-2.562l2.087-11.083c-1.826,1.294-4.916,4.016-7.372,8.847l-0.857,4.535
	c0,0-0.881,3.756,3.464,4.497c1.33,0.229,2.857-0.289,4.102-1.121c0.718-0.481,1.758-1.249,2.569-1.858l-0.165,0.884
	c0,0-0.885,3.765,3.46,4.507c1.33,0.229,2.857-0.29,4.102-1.122c1.115-0.747,3.22-2.349,3.891-2.863
	c0.505,0.7,1.382,1.318,2.888,1.574c1.328,0.229,2.856-0.289,4.101-1.121c1.34-0.897,3.803-2.798,3.803-2.798l0.384-2.001
	C36.861,30.888,34.839,32.264,34.015,32.572z"/>
</svg>
