<?xml version="1.0" encoding="utf-8"?>
<!-- Generator: Adobe Illustrator 16.0.1, SVG Export Plug-In . SVG Version: 6.00 Build 0)  -->
<!DOCTYPE svg PUBLIC "-//W3C//DTD SVG 1.1//EN" "http://www.w3.org/Graphics/SVG/1.1/DTD/svg11.dtd">
<svg version="1.1" id="Layer_1" xmlns="http://www.w3.org/2000/svg" xmlns:xlink="http://www.w3.org/1999/xlink" x="0px" y="0px"
	 width="150px" height="150px" viewBox="0 0 150 150" enable-background="new 0 0 150 150" xml:space="preserve">
<g>
	<path fill="#58595B" d="M9.773,128.355H4.168v5.061H3.353V122.66h0.816v4.97h5.604v-4.97h0.815v10.756H9.773V128.355z"/>
	<path fill="#58595B" d="M20.818,130.803h-5.015l-0.937,2.613H13.99l3.958-10.756h0.725l3.958,10.756h-0.876L20.818,130.803z
		 M16.06,130.077h4.501l-2.251-6.329L16.06,130.077z"/>
	<path fill="#58595B" d="M34.25,124.549l-3.263,7.356h-0.816l-3.323-7.356v8.867h-0.816V122.66h0.816l3.746,8.294l3.656-8.294h0.816
		v10.756H34.25V124.549z"/>
	<path fill="#58595B" d="M39.902,122.66h0.816v10.756h-0.816V122.66z"/>
	<path fill="#58595B" d="M48.242,133.507c-1.586,0-2.598-0.438-3.58-1.42l0.574-0.574c0.967,0.967,1.768,1.269,3.052,1.269
		c1.707,0,2.764-0.815,2.764-2.221c0-0.649-0.181-1.163-0.589-1.51c-0.408-0.317-0.665-0.454-1.556-0.574l-1.254-0.196
		c-0.815-0.121-1.45-0.378-1.918-0.786c-0.559-0.468-0.846-1.133-0.846-1.979c0-1.812,1.269-2.946,3.338-2.946
		c1.33,0,2.175,0.363,3.097,1.164l-0.529,0.528c-0.634-0.604-1.344-0.997-2.613-0.997c-1.571,0-2.492,0.846-2.492,2.221
		c0,0.619,0.181,1.088,0.559,1.405c0.378,0.316,0.997,0.559,1.602,0.664l1.163,0.182c1.012,0.136,1.48,0.332,1.918,0.71
		c0.589,0.483,0.937,1.224,0.937,2.084C51.868,132.358,50.493,133.507,48.242,133.507z"/>
	<path fill="#58595B" d="M62.354,128.355h-5.604v5.061h-0.816V122.66h0.816v4.97h5.604v-4.97h0.815v10.756h-0.815V128.355z"/>
	<path fill="#58595B" d="M76.768,133.416h-1.752l-1.979-6.525l-1.979,6.525h-1.752l-2.87-10.756h2.19l1.662,6.783l1.964-6.783h1.571
		l1.964,6.783l1.676-6.783h2.19L76.768,133.416z"/>
	<path fill="#58595B" d="M82.511,133.416V122.66h2.1v10.756H82.511z"/>
	<path fill="#58595B" d="M88.63,133.416V122.66h2.1v8.883h4.879v1.873H88.63z"/>
	<path fill="#58595B" d="M98.829,133.416V122.66h2.1v8.883h4.879v1.873H98.829z"/>
	<path fill="#58595B" d="M109.028,133.416V122.66h2.1v10.756H109.028z"/>
	<path fill="#58595B" d="M121.266,133.416l-0.635-1.903h-3.822l-0.649,1.903h-2.19l3.913-10.756h1.646l3.928,10.756H121.266z
		 M118.758,125.833l-1.359,3.912h2.674L118.758,125.833z"/>
	<path fill="#58595B" d="M133.941,133.416v-6.27l-2.055,4.079h-1.42l-2.069-4.079v6.27h-2.1V122.66h2.069l2.81,5.816l2.795-5.816
		h2.069v10.756H133.941z"/>
	<path fill="#58595B" d="M143.023,133.507c-1.632,0-2.87-0.348-3.928-1.42l1.359-1.359c0.68,0.68,1.602,0.906,2.599,0.906
		c1.238,0,1.903-0.469,1.903-1.33c0-0.377-0.105-0.694-0.333-0.906c-0.211-0.196-0.453-0.302-0.951-0.377l-1.299-0.182
		c-0.922-0.136-1.602-0.423-2.085-0.892c-0.514-0.514-0.771-1.208-0.771-2.114c0-1.919,1.42-3.264,3.746-3.264
		c1.48,0,2.554,0.363,3.475,1.254l-1.329,1.314c-0.68-0.649-1.496-0.74-2.206-0.74c-1.117,0-1.661,0.619-1.661,1.359
		c0,0.272,0.091,0.56,0.317,0.771c0.211,0.196,0.559,0.363,0.997,0.423l1.269,0.182c0.981,0.136,1.602,0.408,2.055,0.831
		c0.574,0.544,0.831,1.329,0.831,2.281C147.012,132.328,145.274,133.507,143.023,133.507z"/>
</g>
<path fill="#58595B" d="M107.061,86.882c-1.74,0.65-7.73,0.657-6.521-6.115l7.207-38.137c-3.13,1.905-10.423,7.126-16.818,17.478
	l-4.906,26.163c-0.014,0.071-0.352,1.621-0.017,3.535c-1.446,1.003-3.476,2.336-4.636,2.768c-1.738,0.65-7.743,0.754-6.533-6.019
	l7.079-37.576c0.114-0.525,1.753-8.901-8.189-10.6c-3.138-0.536-6.747,0.685-9.684,2.652c-1.694,1.133-4.147,2.947-6.063,4.387
	l4.413-23.176c0.009-0.04,2.057-8.875-8.182-10.624c-3.141-0.536-6.747,0.686-9.687,2.652c-3.161,2.114-8.979,6.605-8.979,6.605
	l-0.922,4.315c0,0,4.792-2.842,6.737-3.567c1.739-0.649,7.73-0.697,6.525,6.066l-7.352,38.857
	c8.043-11.837,16.805-16.299,17.874-16.982c0.948-0.526,1.853-0.95,2.471-1.181c1.737-0.648,7.728-0.684,6.526,6.078l-5.686,30.165
	c-1.336,0.899-2.914,1.892-3.884,2.254c-1.738,0.65-7.737,0.726-6.527-6.046l4.928-26.17c-4.312,3.054-11.609,9.483-17.406,20.894
	l-2.026,10.705c0,0-2.08,8.87,8.182,10.624c3.139,0.533,6.747-0.685,9.685-2.651c1.694-1.134,4.15-2.949,6.066-4.39l-0.387,2.09
	c0,0-2.091,8.889,8.17,10.644c3.139,0.536,6.749-0.685,9.686-2.65c2.635-1.764,7.601-5.548,9.186-6.761
	c1.194,1.649,3.264,3.113,6.819,3.719c3.141,0.533,6.746-0.685,9.685-2.651c3.163-2.115,8.979-6.607,8.979-6.607l0.906-4.726
	C113.78,82.904,109.004,86.156,107.061,86.882z"/>
</svg>
