<?xml version="1.0" encoding="utf-8"?>
<!-- Generator: Adobe Illustrator 16.0.1, SVG Export Plug-In . SVG Version: 6.00 Build 0)  -->
<!DOCTYPE svg PUBLIC "-//W3C//DTD SVG 1.1//EN" "http://www.w3.org/Graphics/SVG/1.1/DTD/svg11.dtd">
<svg version="1.1" id="Layer_1" xmlns="http://www.w3.org/2000/svg" xmlns:xlink="http://www.w3.org/1999/xlink" x="0px" y="0px"
	 width="1382.948px" height="317.983px" viewBox="0 0 1382.948 317.983" enable-background="new 0 0 1382.948 317.983"
	 xml:space="preserve">
<polygon fill="none" stroke="#E6E6E6" stroke-linejoin="bevel" stroke-miterlimit="10" points="7.5,306.898 146,282.398 
	48.5,252.398 "/>
<polyline fill="none" stroke="#E6E6E6" stroke-miterlimit="10" points="0.056,274.399 48.5,252.398 -0.069,212.981 "/>
<polyline fill="none" stroke="#E6E6E6" stroke-miterlimit="10" points="-0.052,150.474 23,166.148 48.5,252.398 "/>
<polygon fill="none" stroke="#E6E6E6" stroke-miterlimit="10" points="23,166.148 21.25,128.398 61.25,131.148 "/>
<polyline fill="none" stroke="#E6E6E6" stroke-miterlimit="10" points="-0.015,124.226 21.25,128.398 -0.026,97.792 "/>
<polyline fill="none" stroke="#E6E6E6" stroke-linejoin="bevel" stroke-miterlimit="10" points="21.25,128.398 47.75,64.648 
	0.025,77.505 "/>
<path fill="none" stroke="#000000" stroke-miterlimit="10" d="M-840.833,68.996"/>
<polyline fill="none" stroke="#E6E6E6" stroke-miterlimit="10" points="89.5,291.398 48.5,252.398 81.5,248.231 23,166.148 
	0.053,198.811 "/>
<polygon fill="none" stroke="#E6E6E6" stroke-linejoin="bevel" stroke-miterlimit="10" points="81.5,248.231 61.25,131.148 
	130.667,112.898 "/>
<polyline fill="none" stroke="#E6E6E6" stroke-linejoin="bevel" stroke-miterlimit="10" points="61.25,131.148 47.75,64.648 
	130.667,112.898 168.167,71.732 47.812,64.461 "/>
<polyline fill="none" stroke="#E6E6E6" stroke-linejoin="bevel" stroke-miterlimit="10" points="0.053,36.186 47.75,64.648 
	43,7.648 0,8.761 "/>
<polygon fill="none" stroke="#E6E6E6" stroke-linejoin="bevel" stroke-miterlimit="10" points="43,7.648 168.167,71.732 
	215.5,3.898 "/>
<polyline fill="none" stroke="#E6E6E6" stroke-linejoin="bevel" stroke-miterlimit="10" points="145.583,282.565 169.083,260.398 
	144.5,264.899 160.5,225.398 169.083,260.398 186.5,206.898 160.5,225.398 "/>
<polyline fill="none" stroke="#E6E6E6" stroke-linejoin="bevel" stroke-miterlimit="10" points="169.083,260.398 285,194.898 
	146,282.398 499.667,274.565 343.667,204.564 146.667,282.398 "/>
<polygon fill="none" stroke="#E6E6E6" stroke-linejoin="bevel" stroke-miterlimit="10" points="343.667,204.564 284.688,195.023 
	361.333,137.565 "/>
<polygon fill="none" stroke="#E6E6E6" stroke-linejoin="bevel" stroke-miterlimit="10" points="284.688,195.023 242.333,185.565 
	186.5,206.898 "/>
<polyline fill="none" stroke="#E6E6E6" stroke-linejoin="bevel" stroke-miterlimit="10" points="186.5,206.898 130.667,112.898 
	160.5,225.398 81.5,248.231 146,282.398 144.5,264.899 82,248.232 "/>
<polyline fill="none" stroke="#E6E6E6" stroke-linejoin="bevel" stroke-miterlimit="10" points="130.667,112.898 242.333,185.565 
	168.167,71.732 287.125,102.273 242.333,185.565 "/>
<polyline fill="none" stroke="#E6E6E6" stroke-linejoin="bevel" stroke-miterlimit="10" points="284.688,195.023 286.958,102.19 
	361.333,137.565 357,101.232 287,102.315 "/>
<polyline fill="none" stroke="#E6E6E6" stroke-linejoin="bevel" stroke-miterlimit="10" points="287.125,102.273 215.5,3.898 
	357,101.232 500.5,93.148 215.5,3.898 "/>
<polyline fill="none" stroke="#E6E6E6" stroke-linejoin="bevel" stroke-miterlimit="10" points="500.5,93.148 404,153.898 
	464.75,185.898 441,223.148 404,153.898 343.667,204.564 441,223.148 499.667,274.565 523,231.232 614,283.231 499.667,274.565 
	616,296.898 614,283.231 "/>
<polyline fill="none" stroke="#E6E6E6" stroke-linejoin="bevel" stroke-miterlimit="10" points="357,101.232 404,153.898 
	361.333,137.565 "/>
<polyline fill="none" stroke="#E6E6E6" stroke-linejoin="bevel" stroke-miterlimit="10" points="404,153.898 459.5,158.648 
	464.75,185.898 470.25,162.898 459.5,158.648 505,128.148 470.25,162.898 "/>
<polyline fill="none" stroke="#E6E6E6" stroke-linejoin="bevel" stroke-miterlimit="10" points="459.5,158.648 500.5,93.148 
	505,128.148 571.5,96.148 500.5,93.148 "/>
<polyline fill="none" stroke="#E6E6E6" stroke-linejoin="bevel" stroke-miterlimit="10" points="505,128.148 519.667,171.232 
	470.25,162.898 "/>
<polygon fill="none" stroke="#E6E6E6" stroke-linejoin="bevel" stroke-miterlimit="10" points="464.75,185.898 516,210.898 
	519.667,171.232 "/>
<polyline fill="none" stroke="#E6E6E6" stroke-linejoin="bevel" stroke-miterlimit="10" points="464.75,185.898 523,231.232 
	441,223.148 "/>
<polyline fill="none" stroke="#E6E6E6" stroke-linejoin="bevel" stroke-miterlimit="10" points="516,210.898 523,231.232 
	614,225.565 516,210.898 "/>
<polyline fill="none" stroke="#E6E6E6" stroke-linejoin="bevel" stroke-miterlimit="10" points="558.5,143.398 640.5,154.398 
	519.667,171.232 614,225.565 640.5,154.398 682,203.398 614,225.565 "/>
<polyline fill="none" stroke="#E6E6E6" stroke-linejoin="bevel" stroke-miterlimit="10" points="498.333,92.565 697,21.898 
	571.5,96.148 558.5,143.398 519.667,171.232 571.5,96.148 741,79.232 558.5,143.398 "/>
<polyline fill="none" stroke="#E6E6E6" stroke-linejoin="bevel" stroke-miterlimit="10" points="665.333,62.232 697,21.898 
	741,79.232 665.333,62.232 572.333,94.898 "/>
<polyline fill="none" stroke="#E6E6E6" stroke-linejoin="bevel" stroke-miterlimit="10" points="712,217.232 682,203.398 
	743.666,99.898 "/>
<polyline fill="none" stroke="#E6E6E6" stroke-linejoin="bevel" stroke-miterlimit="10" points="613.5,225.898 613.5,283.231 
	704.75,231.231 615.875,296.898 741.604,278.898 704.719,231.398 "/>
<line fill="none" stroke="#E6E6E6" stroke-linejoin="bevel" stroke-miterlimit="10" x1="682" y1="203.398" x2="613.5" y2="283.231"/>
<polyline fill="none" stroke="#E6E6E6" stroke-linejoin="bevel" stroke-miterlimit="10" points="712,217.232 741.604,278.898 
	723,205.232 743.666,99.898 788,117.898 780,149.398 845,69.398 788,117.898 792.333,89.898 778.334,61.898 845,69.398 "/>
<polyline fill="none" stroke="#E6E6E6" stroke-linejoin="bevel" stroke-miterlimit="10" points="741,199.565 800,203.231 
	741.604,278.898 847,271.565 800,203.231 780.625,149.773 743.666,99.898 741,199.565 773.612,168.518 "/>
<polyline fill="none" stroke="#E6E6E6" stroke-linejoin="bevel" stroke-miterlimit="10" points="743.812,100.461 773.5,168.398 
	800,203.231 840,192.398 780,149.398 773.5,168.398 "/>
<polygon fill="none" stroke="#E6E6E6" stroke-linejoin="bevel" stroke-miterlimit="10" points="840,192.398 847,271.565 
	949,272.398 "/>
<polygon fill="none" stroke="#E6E6E6" stroke-linejoin="bevel" stroke-miterlimit="10" points="840,192.398 934,125.398 
	974,172.398 "/>
<polyline fill="none" stroke="#E6E6E6" stroke-linejoin="bevel" stroke-miterlimit="10" points="840,192.398 845,69.398 
	934,125.398 1029,181.898 "/>
<polygon fill="none" stroke="#E6E6E6" stroke-linejoin="bevel" stroke-miterlimit="10" points="949,272.398 974,172.398 
	985.5,182.898 "/>
<polygon fill="none" stroke="#E6E6E6" stroke-linejoin="bevel" stroke-miterlimit="10" points="1029,181.898 1052.5,131.898 
	1074,160.898 "/>
<polygon fill="none" stroke="#E6E6E6" stroke-linejoin="bevel" stroke-miterlimit="10" points="1091,103.898 1130,69.398 
	1180.5,114.398 "/>
<polyline fill="none" stroke="#E6E6E6" stroke-linejoin="bevel" stroke-miterlimit="10" points="885.25,24.898 867.75,36.398 
	934,125.398 885.25,24.898 985,29.565 1130,69.398 1057.75,110.898 1091,103.898 1110.5,190.398 1180.125,114.273 1295.667,55.898 
	"/>
<polyline fill="none" stroke="#E6E6E6" stroke-linejoin="bevel" stroke-miterlimit="10" points="885.25,24.898 826.667,21.898 
	867.75,36.398 845,69.398 "/>
<polyline fill="none" stroke="#E6E6E6" stroke-linejoin="bevel" stroke-miterlimit="10" points="826.667,21.898 778.5,34.315 
	778.334,61.898 826.667,21.898 845,69.398 792.333,89.898 "/>
<polyline fill="none" stroke="#E6E6E6" stroke-linejoin="bevel" stroke-miterlimit="10" points="778.5,34.315 697,21.898 
	778.334,61.898 741,79.232 743.666,99.898 792.333,89.898 741,79.232 640.5,154.398 743.666,99.898 "/>
<polygon fill="none" stroke="#E6E6E6" stroke-linejoin="bevel" stroke-miterlimit="10" points="949,272.398 966.667,284.232 
	848.334,299.231 "/>
<polyline fill="none" stroke="#E6E6E6" stroke-linejoin="bevel" stroke-miterlimit="10" points="847,271.565 848.334,299.231 
	741.604,278.898 741,199.565 723,205.232 712,217.232 705,231.231 682,203.398 723,205.232 "/>
<polyline fill="none" stroke="#E6E6E6" stroke-linejoin="bevel" stroke-miterlimit="10" points="949,272.398 979.5,230.898 
	966.667,284.232 1026.5,304.398 848.334,299.231 "/>
<polyline fill="none" stroke="#E6E6E6" stroke-linejoin="bevel" stroke-miterlimit="10" points="1026.5,304.398 1055.001,309.065 
	1048,285.398 1026.5,304.398 979.5,230.898 "/>
<polygon fill="none" stroke="#E6E6E6" stroke-linejoin="bevel" stroke-miterlimit="10" points="1055.001,309.065 1138.25,293.648 
	1104,262.398 "/>
<polyline fill="none" stroke="#E6E6E6" stroke-linejoin="bevel" stroke-miterlimit="10" points="1048,285.398 1104,262.398 
	1070,217.231 1048,285.398 979.5,230.898 1070,217.231 1029,181.898 979.5,230.898 985.5,182.898 1029,181.898 974,172.398 "/>
<polygon fill="none" stroke="#E6E6E6" stroke-linejoin="bevel" stroke-miterlimit="10" points="1113.75,218.648 1104,262.398 
	1133.25,250.898 "/>
<polyline fill="none" stroke="#E6E6E6" stroke-linejoin="bevel" stroke-miterlimit="10" points="1070,217.231 1113.75,218.648 
	1110.5,190.398 1133.25,250.898 1219.5,135.648 1266.5,169.898 1133.25,250.898 "/>
<polyline fill="none" stroke="#E6E6E6" stroke-linejoin="bevel" stroke-miterlimit="10" points="1074,160.898 1110.5,190.398 
	1070,217.231 1074,160.898 1091,103.898 1052.5,131.898 934,125.398 985,29.565 1052.5,131.898 1057.75,110.898 985.75,30.148 "/>
<polygon fill="none" stroke="#E6E6E6" stroke-linejoin="bevel" stroke-miterlimit="10" points="1138.25,293.648 1133.25,250.898 
	1288,273.398 "/>
<line fill="none" stroke="#E6E6E6" stroke-miterlimit="10" x1="7.5" y1="306.898" x2="-0.012" y2="306.643"/>
<g>
	<line fill="none" stroke="#E6E6E6" stroke-miterlimit="10" x1="1382.932" y1="212.981" x2="1376.668" y2="207.898"/>
	<line fill="none" stroke="#E6E6E6" stroke-miterlimit="10" x1="1317" y1="304.398" x2="1383.057" y2="274.399"/>
	<line fill="none" stroke="#E6E6E6" stroke-miterlimit="10" x1="1328.668" y1="113.565" x2="1382.948" y2="150.474"/>
	<line fill="none" stroke="#E6E6E6" stroke-miterlimit="10" x1="1382.975" y1="97.792" x2="1371" y2="80.565"/>
	<line fill="none" stroke="#E6E6E6" stroke-miterlimit="10" x1="1328.668" y1="113.565" x2="1382.985" y2="124.226"/>
	
		<line fill="none" stroke="#E6E6E6" stroke-linejoin="bevel" stroke-miterlimit="10" x1="1383.025" y1="77.505" x2="1371.667" y2="80.565"/>
	<line fill="none" stroke="#E6E6E6" stroke-miterlimit="10" x1="1383.053" y1="198.811" x2="1376.668" y2="207.898"/>
	<polyline fill="none" stroke="#E6E6E6" stroke-linejoin="bevel" stroke-miterlimit="10" points="1383,8.761 1339,9.898 
		1383.053,36.186 	"/>
	<polygon fill="none" stroke="#E6E6E6" stroke-linejoin="bevel" stroke-miterlimit="10" points="1130,69.398 1339,9.898 
		1295.667,55.898 	"/>
	<polyline fill="none" stroke="#E6E6E6" stroke-linejoin="bevel" stroke-miterlimit="10" points="1110.5,190.398 1219.5,135.648 
		1328.668,113.565 1266.5,169.898 	"/>
	<polygon fill="none" stroke="#E6E6E6" stroke-linejoin="bevel" stroke-miterlimit="10" points="1288,273.398 1317,304.398 
		1324.5,217.398 	"/>
	<polyline fill="none" stroke="#E6E6E6" stroke-linejoin="bevel" stroke-miterlimit="10" points="1138.25,293.648 1317,304.398 
		1376.668,207.898 	"/>
	<polyline fill="none" stroke="#E6E6E6" stroke-linejoin="bevel" stroke-miterlimit="10" points="1287.5,273.898 1288.5,224.898 
		1266.5,169.898 1324.641,217.695 1133.25,250.898 	"/>
	<polyline fill="none" stroke="#E6E6E6" stroke-linejoin="bevel" stroke-miterlimit="10" points="1288.5,224.898 1300.334,198.565 
		1328.668,113.565 1376.668,207.898 1324.641,217.695 	"/>
	<polyline fill="none" stroke="#E6E6E6" stroke-linejoin="bevel" stroke-miterlimit="10" points="1180.125,114.273 1219.5,135.648 
		1295.667,55.898 1328.668,113.565 1371,80.565 1295.812,56.086 	"/>
	<line fill="none" stroke="#E6E6E6" stroke-miterlimit="10" x1="1382.988" y1="306.643" x2="1317" y2="304.398"/>
	<line fill="none" stroke="#E6E6E6" stroke-linejoin="bevel" stroke-miterlimit="10" x1="1371" y1="80.565" x2="1339" y2="9.898"/>
</g>
</svg>
