<?xml version="1.0" encoding="utf-8"?>
<!-- Generator: Adobe Illustrator 16.0.1, SVG Export Plug-In . SVG Version: 6.00 Build 0)  -->
<!DOCTYPE svg PUBLIC "-//W3C//DTD SVG 1.1//EN" "http://www.w3.org/Graphics/SVG/1.1/DTD/svg11.dtd">
<svg version="1.1" xmlns="http://www.w3.org/2000/svg" xmlns:xlink="http://www.w3.org/1999/xlink" x="0px" y="0px"
	 width="841.89px" height="595.28px" viewBox="0 0 841.89 595.28" enable-background="new 0 0 841.89 595.28" xml:space="preserve">
<g id="Layer_1">
</g>
<g id="Layer_2">
	<g>
		<g>
			<defs>
				<polyline id="SVGID_1_" points="841.89,595.28 0,595.28 0,-0.485 841.89,-0.485 841.89,595.28 				"/>
			</defs>
			<clipPath id="SVGID_2_">
				<use xlink:href="#SVGID_1_"  overflow="visible"/>
			</clipPath>
			<polyline clip-path="url(#SVGID_2_)" fill="#EFEFF0" points="677.234,-0.485 582.115,-0.485 582,0 677.424,0 677.234,-0.485 			
				"/>
			<polyline clip-path="url(#SVGID_2_)" fill="#D2D4D5" points="582.115,-0.485 377.109,-0.485 376.337,0 582,0 582.115,-0.485 			
				"/>
			<polyline clip-path="url(#SVGID_2_)" fill="#EFEFF0" points="377.109,-0.485 144.63,-0.485 141.215,0 376.337,0 377.109,-0.485 
							"/>
			<polyline clip-path="url(#SVGID_2_)" fill="#E0E1E2" points="841.89,-0.485 677.234,-0.485 677.424,0 841.89,0 841.89,-0.485 			
				"/>
			<polyline clip-path="url(#SVGID_2_)" fill="#E0E1E2" points="139.535,-0.485 1.389,-0.485 1.706,0 141.215,0 139.535,-0.485 			
				"/>
			<polyline clip-path="url(#SVGID_2_)" fill="#D2D4D5" points="1.389,-0.485 0.122,-0.485 0.15,0 1.706,0 1.389,-0.485 			"/>
			<polyline clip-path="url(#SVGID_2_)" fill="#C4C6C8" points="0.122,-0.485 0,-0.485 0,361.734 0,0 0.15,0 0.122,-0.485 			"/>
		</g>
		<path fill="#24B898" d="M141.215,454.5L141.215,454.5l57.452,1.851l111.855,3.603L141.215,454.5 M597,300.041L597,300.041
			l-38.677,149.376L431,429l127.323,20.417L531.5,553.014L431,429l-44.333-62L431,429l100.5,124.014L641,575.76l-109.5-22.746
			l42.188-162.935L597,300.041 M52.665,285.507L0,482.999V483L52.665,285.507L52.665,285.507 M12,207L12,207l115.182,29.762
			L98.879,374.729l-46.214-89.221v0l46.214,89.222L71.333,509L0,588.449L71.333,509l55.849-272.238l64.75,16.731L12,207
			 M254.667,181.667l40.667,158.667L198.667,387l235.145-113.423l0,0l-138.478,66.756L254.667,181.667 M150,148l41.932,105.493
			l25.589,64.376l0,0L150,148 M150,148l-59-11L141.215,0L150,148 M150,148L141.215,0l195.439,68.36L150,148 M582,0L582,0L335,26
			L582,0l-9,181.667l-88-8.167l-55.168,21.747L364.5,221l20.298-106.125L364.5,221l-25.166-84l-84.667,44.667L150,148l186.654-79.64
			l2.68,68.64L335,26l1.654,42.36L141.215,0L91,137l-79,70l79-70l59,11l104.667,33.667L339.334,137l25.166,84L485,173.5
			l2.713,59.435l9.778,144.411l0,0l-9.778-144.411L597,300.041l-109.287-67.106L485,173.5l88,8.167l24,118.375l-24-118.375L582,0
			l102.405,267.34v0l-30.642-79.994l151.569,14.321l-151.569-14.321L601.967,52.124l203.366,149.543l36.557,17.481l-36.557-17.481
			l-68.864-50.639L601.967,52.124L582,0"/>
		<polyline fill="#21AD8F" points="339.334,137 254.667,181.667 295.334,340.333 339.334,137 		"/>
		<polyline fill="#1FA387" points="339.334,137 339.334,137 295.334,340.333 364.5,221 339.334,137 		"/>
		<polyline fill="#1B8E77" points="485,173.5 364.5,221 295.334,340.333 433.812,273.577 485,173.5 		"/>
		<polyline fill="#1FA387" points="433.812,273.577 198.667,387 386.667,367 421.503,297.64 433.812,273.577 		"/>
		<path fill="#1D987F" d="M217.521,317.869L217.521,317.869L217.521,317.869 M254.667,181.667L254.667,181.667l-37.146,136.203
			L198.667,387l96.667-46.667L254.667,181.667"/>
		<polyline fill="#1B8E77" points="150,148 150,148 217.521,317.869 254.667,181.667 150,148 		"/>
		<polyline fill="#1B8E77" points="386.667,367 198.667,387 141.215,454.5 386.667,367 		"/>
		<polyline fill="#21AD8F" points="386.667,367 141.215,454.5 310.522,459.953 386.667,367 		"/>
		<polyline fill="#23B193" points="386.667,367 386.667,367 310.522,459.953 431,429 386.667,367 		"/>
		<path fill="#1D987F" d="M191.932,253.493L191.932,253.493 M91,137l100.932,116.493L150,148L91,137"/>
		<path fill="#1FA387" d="M217.521,317.869L135,363.32L198.667,387L217.521,317.869 M217.521,317.869L217.521,317.869"/>
		<polyline fill="#21AD8F" points="191.932,253.493 191.932,253.493 135,363.32 217.521,317.869 191.932,253.493 		"/>
		<polyline fill="#1FA387" points="135,363.32 141.215,454.5 198.667,387 135,363.32 		"/>
		<path fill="#1FA387" d="M191.932,253.493L191.932,253.493 M91,137l-79,70l179.932,46.493L91,137"/>
		<polyline fill="#1D987F" points="127.182,236.762 135,363.32 191.932,253.493 127.182,236.762 		"/>
		<polyline fill="#1D987F" points="141.215,454.5 157.463,562.214 162.451,595.28 172.339,595.28 198.667,456.351 141.215,454.5 		
			"/>
		<polyline fill="#21AD8F" points="141.215,454.5 141.215,454.5 71.333,509 157.463,562.214 141.215,454.5 		"/>
		<polyline fill="#1FA387" points="431,429 431,429 310.522,459.953 390.167,489.693 531.5,553.014 431,429 		"/>
		<polyline fill="#23B193" points="127.182,236.762 71.333,509 141.215,454.5 135,363.32 127.182,236.762 		"/>
		<polyline fill="#1FA387" points="198.667,456.351 198.667,456.351 172.339,595.28 192.23,595.28 209.293,575.76 310.522,459.953 
			198.667,456.351 		"/>
		<polyline fill="#21AD8F" points="71.333,509 0,588.449 0,595.28 142.776,595.28 71.333,509 		"/>
		<polyline fill="#23B193" points="71.333,509 71.333,509 142.776,595.28 162.451,595.28 157.463,562.214 71.333,509 		"/>
		<polyline fill="#1D987F" points="310.522,459.953 310.522,459.953 209.293,575.76 254.667,554.169 390.167,489.693 
			310.522,459.953 		"/>
		<polyline fill="#21AD8F" points="390.167,489.693 390.167,489.693 254.667,554.169 396.634,595.28 443.217,595.28 419,575.76 
			390.167,489.693 		"/>
		<polyline fill="#1B8E77" points="390.167,489.693 390.167,489.693 419,575.76 531.5,553.014 390.167,489.693 		"/>
		<polyline fill="#1B8E77" points="254.667,554.169 209.293,575.76 192.23,595.28 396.634,595.28 254.667,554.169 		"/>
		<polyline fill="#1FA387" points="531.5,553.014 531.5,553.014 419,575.76 443.217,595.28 558.409,595.28 641,575.76 
			531.5,553.014 		"/>
		<polyline fill="#1D987F" points="485,173.5 485,173.5 433.812,273.577 421.503,297.64 386.667,367 431,429 497.491,377.346 
			487.713,232.935 485,173.5 		"/>
		<polyline fill="#1D987F" points="573.688,390.079 531.5,553.014 641,575.76 601.12,465.753 573.688,390.079 		"/>
		<polyline fill="#1B8E77" points="487.713,232.935 497.491,377.346 597,300.041 487.713,232.935 		"/>
		<path fill="#1FA387" d="M597,300.041L597,300.041 M485,173.5l2.713,59.435L597,300.041l-24-118.375L485,173.5"/>
		<polyline fill="#21AD8F" points="597,300.041 597,300.041 573.688,390.079 715,426.527 597,300.041 		"/>
		<polyline fill="#1FA387" points="573.688,390.079 573.688,390.079 601.12,465.753 641,575.76 664.942,527.476 715,426.527 
			573.688,390.079 		"/>
		<polyline fill="#1FA387" points="573,181.667 573,181.667 715,426.527 728.5,301.25 684.405,267.34 684.405,267.34 
			684.405,267.34 573,181.667 		"/>
		<polyline fill="#1D987F" points="573,181.667 573,181.667 597,300.041 715,426.527 573,181.667 		"/>
		<polyline fill="#1D987F" points="582,0 573,181.667 684.405,267.34 582,0 		"/>
		<polyline fill="#1B8E77" points="431,429 431,429 531.5,553.014 558.323,449.417 431,429 		"/>
		<path fill="#1FA387" d="M597,300.041l-99.509,77.305L431,429l127.323,20.417L597,300.041 M597,300.041L597,300.041"/>
		<polyline fill="#21AD8F" points="582,0 582,0 517.776,114.875 485,173.5 573,181.667 582,0 		"/>
		<polyline fill="#21AD8F" points="653.764,187.346 684.405,267.34 805.333,201.667 653.764,187.346 		"/>
		<polyline fill="#1B8E77" points="601.967,52.124 653.764,187.346 805.333,201.667 601.967,52.124 		"/>
		<polyline fill="#1FA387" points="582,0 335,26 517.776,114.875 582,0 		"/>
		<polyline fill="#1D987F" points="335,26 335,26 384.798,114.875 429.832,195.247 485,173.5 517.776,114.875 335,26 		"/>
		<polyline fill="#21AD8F" points="384.798,114.875 384.798,114.875 364.5,221 429.832,195.247 384.798,114.875 		"/>
		<polyline fill="#23B193" points="335,26 335,26 339.334,137 364.5,221 384.798,114.875 335,26 		"/>
		<polyline fill="#1B8E77" points="336.654,68.36 150,148 339.334,137 336.654,68.36 		"/>
		<path fill="#1FA387" d="M339.334,137L150,148l104.667,33.667L339.334,137 M339.334,137L339.334,137"/>
		<polyline fill="#23B193" points="141.215,0 91,137 150,148 141.215,0 		"/>
		<polyline fill="#1FA387" points="141.215,0 150,148 336.654,68.36 141.215,0 		"/>
		<polyline fill="#1FA387" points="52.665,285.507 71.333,509 98.879,374.729 52.665,285.507 		"/>
		<polyline fill="#21AD8F" points="12,207 52.665,285.507 52.665,285.507 52.665,285.507 98.879,374.729 127.182,236.762 12,207 		
			"/>
		<polyline fill="#1B8E77" points="52.665,285.507 52.665,285.507 0,483 0,588.449 71.333,509 52.665,285.507 		"/>
		<polyline fill="#21AD8F" points="677.424,0 582,0 601.967,52.124 736.469,151.029 677.424,0 		"/>
		<polyline fill="#1D987F" points="582,0 376.337,0 335,26 582,0 		"/>
		<polyline fill="#21AD8F" points="376.337,0 141.215,0 336.654,68.36 335,26 376.337,0 		"/>
		<path fill="#21AD8F" d="M715,426.527L715,426.527 M841.89,283.297l-62.029,9.821l-51.36,8.132L715,426.527l126.89-88.723V283.297"
			/>
		<polyline fill="#1D987F" points="805.333,201.667 684.405,267.34 728.5,301.25 779.86,293.118 805.333,201.667 		"/>
		<polyline fill="#1D987F" points="715,426.527 715,426.527 664.942,527.476 841.89,505.5 715,426.527 		"/>
		<polyline fill="#1D987F" points="641,575.76 641,575.76 558.409,595.28 659.556,595.28 641,575.76 		"/>
		<polyline fill="#1FA387" points="841.89,337.805 715,426.527 841.89,505.5 841.89,337.805 		"/>
		<polyline fill="#1FA387" points="841.89,0 677.424,0 736.469,151.029 841.89,31.675 841.89,0 		"/>
		<polyline fill="#1FA387" points="141.215,0 1.706,0 91,137 141.215,0 		"/>
		<polyline fill="#1FA387" points="805.333,201.667 805.333,201.667 779.86,293.118 841.89,283.297 841.89,219.149 805.333,201.667 
					"/>
		<polyline fill="#1D987F" points="841.89,31.675 736.469,151.029 805.333,201.667 841.89,219.149 841.89,31.675 		"/>
		<polyline fill="#1D987F" points="1.706,0 0.15,0 12,207 91,137 1.706,0 		"/>
		<polyline fill="#1FA387" points="12,207 12,207 0,361.734 0,482.999 52.665,285.507 12,207 		"/>
		<polyline fill="#1B8E77" points="0.15,0 0,0 0,361.734 12,207 0.15,0 		"/>
		<polyline fill="#1B8E77" points="841.89,505.5 841.89,505.5 664.942,527.476 785.997,595.28 841.89,595.28 841.89,505.5 		"/>
		<polyline fill="#21AD8F" points="664.942,527.476 641,575.76 659.556,595.28 697.296,595.28 664.942,527.476 		"/>
		<polyline fill="#1FA387" points="664.942,527.476 664.942,527.476 697.296,595.28 785.997,595.28 664.942,527.476 		"/>
	</g>
</g>
</svg>
